<mxfile host="app.diagrams.net" agent="Mozilla/5.0 (Windows NT 10.0; Win64; x64) AppleWebKit/537.36 (KHTML, like Gecko) Chrome/127.0.0.0 Safari/537.36" version="24.7.6">
  <diagram name="Page-1" id="9acZfdJ-1v2g2YSb0_T-">
    <mxGraphModel dx="1526" dy="749" grid="1" gridSize="10" guides="1" tooltips="1" connect="1" arrows="1" fold="1" page="1" pageScale="1" pageWidth="850" pageHeight="1100" math="0" shadow="0">
      <root>
        <mxCell id="0" />
        <mxCell id="1" parent="0" />
        <mxCell id="CfDckG5nh9p7WPvy-2GI-5" value="VPC" style="points=[[0,0],[0.25,0],[0.5,0],[0.75,0],[1,0],[1,0.25],[1,0.5],[1,0.75],[1,1],[0.75,1],[0.5,1],[0.25,1],[0,1],[0,0.75],[0,0.5],[0,0.25]];outlineConnect=0;gradientColor=none;html=1;whiteSpace=wrap;fontSize=12;fontStyle=0;container=1;pointerEvents=0;collapsible=0;recursiveResize=0;shape=mxgraph.aws4.group;grIcon=mxgraph.aws4.group_vpc2;strokeColor=#8C4FFF;fillColor=none;verticalAlign=top;align=left;spacingLeft=30;fontColor=#AAB7B8;dashed=0;" vertex="1" parent="1">
          <mxGeometry x="20" y="210" width="780" height="870" as="geometry" />
        </mxCell>
        <mxCell id="CfDckG5nh9p7WPvy-2GI-25" value="Route table" style="sketch=0;outlineConnect=0;fontColor=#232F3E;gradientColor=none;strokeColor=#232F3E;fillColor=#ffffff;dashed=0;verticalLabelPosition=bottom;verticalAlign=top;align=center;html=1;fontSize=12;fontStyle=0;aspect=fixed;shape=mxgraph.aws4.resourceIcon;resIcon=mxgraph.aws4.route_table;" vertex="1" parent="CfDckG5nh9p7WPvy-2GI-5">
          <mxGeometry x="355" y="120" width="60" height="60" as="geometry" />
        </mxCell>
        <mxCell id="CfDckG5nh9p7WPvy-2GI-28" value="&lt;span style=&quot;background-color: rgb(255, 255, 255);&quot;&gt;Availability zone 1a&lt;/span&gt;" style="sketch=0;outlineConnect=0;html=1;whiteSpace=wrap;fontSize=12;fontStyle=0;shape=mxgraph.aws4.group;grIcon=mxgraph.aws4.group_availability_zone;strokeColor=#82b366;fillColor=#FFFFFF;verticalAlign=top;align=left;spacingLeft=30;dashed=1;" vertex="1" parent="CfDckG5nh9p7WPvy-2GI-5">
          <mxGeometry x="30" y="220" width="325" height="310" as="geometry" />
        </mxCell>
        <mxCell id="CfDckG5nh9p7WPvy-2GI-30" value="&lt;span style=&quot;background-color: rgb(255, 255, 255);&quot;&gt;Availability zone 1c&lt;/span&gt;" style="sketch=0;outlineConnect=0;html=1;whiteSpace=wrap;fontSize=12;fontStyle=0;shape=mxgraph.aws4.group;grIcon=mxgraph.aws4.group_availability_zone;verticalAlign=top;align=left;spacingLeft=30;dashed=1;" vertex="1" parent="CfDckG5nh9p7WPvy-2GI-5">
          <mxGeometry x="30" y="570" width="325" height="290" as="geometry" />
        </mxCell>
        <mxCell id="CfDckG5nh9p7WPvy-2GI-36" value="&lt;font style=&quot;background-color: rgb(255, 255, 255);&quot;&gt;Availability zone 1d&lt;/font&gt;" style="sketch=0;outlineConnect=0;html=1;whiteSpace=wrap;fontSize=12;fontStyle=0;shape=mxgraph.aws4.group;grIcon=mxgraph.aws4.group_availability_zone;verticalAlign=top;align=left;spacingLeft=30;dashed=1;" vertex="1" parent="CfDckG5nh9p7WPvy-2GI-5">
          <mxGeometry x="390" y="570" width="340" height="290" as="geometry" />
        </mxCell>
        <mxCell id="CfDckG5nh9p7WPvy-2GI-47" value="" style="sketch=0;outlineConnect=0;fontColor=#232F3E;gradientColor=none;fillColor=#8C4FFF;strokeColor=none;dashed=0;verticalLabelPosition=bottom;verticalAlign=top;align=center;html=1;fontSize=12;fontStyle=0;aspect=fixed;pointerEvents=1;shape=mxgraph.aws4.network_access_control_list;" vertex="1" parent="CfDckG5nh9p7WPvy-2GI-5">
          <mxGeometry x="40" y="340" width="28" height="28" as="geometry" />
        </mxCell>
        <mxCell id="CfDckG5nh9p7WPvy-2GI-64" value="" style="sketch=0;outlineConnect=0;fontColor=#232F3E;gradientColor=none;fillColor=#8C4FFF;strokeColor=none;dashed=0;verticalLabelPosition=bottom;verticalAlign=top;align=center;html=1;fontSize=12;fontStyle=0;aspect=fixed;pointerEvents=1;shape=mxgraph.aws4.network_access_control_list;" vertex="1" parent="CfDckG5nh9p7WPvy-2GI-5">
          <mxGeometry x="40" y="696" width="38" height="38" as="geometry" />
        </mxCell>
        <mxCell id="CfDckG5nh9p7WPvy-2GI-66" value="" style="sketch=0;outlineConnect=0;fontColor=#232F3E;gradientColor=none;fillColor=#8C4FFF;strokeColor=none;dashed=0;verticalLabelPosition=bottom;verticalAlign=top;align=center;html=1;fontSize=12;fontStyle=0;aspect=fixed;pointerEvents=1;shape=mxgraph.aws4.network_access_control_list;" vertex="1" parent="CfDckG5nh9p7WPvy-2GI-5">
          <mxGeometry x="640" y="340" width="38" height="38" as="geometry" />
        </mxCell>
        <mxCell id="CfDckG5nh9p7WPvy-2GI-111" value="" style="edgeStyle=orthogonalEdgeStyle;rounded=0;orthogonalLoop=1;jettySize=auto;html=1;" edge="1" parent="CfDckG5nh9p7WPvy-2GI-5" source="CfDckG5nh9p7WPvy-2GI-65" target="CfDckG5nh9p7WPvy-2GI-86">
          <mxGeometry relative="1" as="geometry" />
        </mxCell>
        <mxCell id="CfDckG5nh9p7WPvy-2GI-65" value="" style="sketch=0;outlineConnect=0;fontColor=#232F3E;gradientColor=none;fillColor=#8C4FFF;strokeColor=none;dashed=0;verticalLabelPosition=bottom;verticalAlign=top;align=center;html=1;fontSize=12;fontStyle=0;aspect=fixed;pointerEvents=1;shape=mxgraph.aws4.network_access_control_list;" vertex="1" parent="CfDckG5nh9p7WPvy-2GI-5">
          <mxGeometry x="678" y="700" width="34" height="34" as="geometry" />
        </mxCell>
        <mxCell id="CfDckG5nh9p7WPvy-2GI-67" value="&lt;span style=&quot;background-color: rgb(255, 255, 255);&quot;&gt;Availability zone 1b&lt;/span&gt;" style="sketch=0;outlineConnect=0;html=1;whiteSpace=wrap;fontSize=12;fontStyle=0;shape=mxgraph.aws4.group;grIcon=mxgraph.aws4.group_availability_zone;strokeColor=#82b366;fillColor=#FFFFFF;verticalAlign=top;align=left;spacingLeft=30;dashed=1;" vertex="1" parent="CfDckG5nh9p7WPvy-2GI-5">
          <mxGeometry x="390" y="220" width="340" height="310" as="geometry" />
        </mxCell>
        <mxCell id="CfDckG5nh9p7WPvy-2GI-68" value="" style="sketch=0;outlineConnect=0;fontColor=#232F3E;gradientColor=none;fillColor=#8C4FFF;strokeColor=none;dashed=0;verticalLabelPosition=bottom;verticalAlign=top;align=center;html=1;fontSize=12;fontStyle=0;aspect=fixed;pointerEvents=1;shape=mxgraph.aws4.network_access_control_list;" vertex="1" parent="CfDckG5nh9p7WPvy-2GI-5">
          <mxGeometry x="700" y="321" width="30" height="30" as="geometry" />
        </mxCell>
        <mxCell id="CfDckG5nh9p7WPvy-2GI-69" value="Public Subnet" style="sketch=0;outlineConnect=0;gradientColor=#97d077;html=1;whiteSpace=wrap;fontSize=12;fontStyle=0;shape=mxgraph.aws4.group;grIcon=mxgraph.aws4.group_subnet;strokeColor=#82b366;fillColor=#d5e8d4;verticalAlign=top;align=left;spacingLeft=30;dashed=0;" vertex="1" parent="CfDckG5nh9p7WPvy-2GI-5">
          <mxGeometry x="90" y="260" width="240" height="250" as="geometry" />
        </mxCell>
        <mxCell id="CfDckG5nh9p7WPvy-2GI-70" value="Public Subnet" style="sketch=0;outlineConnect=0;gradientColor=#97d077;html=1;whiteSpace=wrap;fontSize=12;fontStyle=0;shape=mxgraph.aws4.group;grIcon=mxgraph.aws4.group_subnet;strokeColor=#82b366;fillColor=#d5e8d4;verticalAlign=top;align=left;spacingLeft=30;dashed=0;" vertex="1" parent="CfDckG5nh9p7WPvy-2GI-5">
          <mxGeometry x="430" y="260" width="240" height="250" as="geometry" />
        </mxCell>
        <mxCell id="CfDckG5nh9p7WPvy-2GI-71" value="Provate Subnet" style="sketch=0;outlineConnect=0;gradientColor=#d5739d;html=1;whiteSpace=wrap;fontSize=12;fontStyle=0;shape=mxgraph.aws4.group;grIcon=mxgraph.aws4.group_subnet;strokeColor=#996185;fillColor=#e6d0de;verticalAlign=top;align=left;spacingLeft=30;dashed=0;" vertex="1" parent="CfDckG5nh9p7WPvy-2GI-5">
          <mxGeometry x="90" y="600" width="240" height="250" as="geometry" />
        </mxCell>
        <mxCell id="CfDckG5nh9p7WPvy-2GI-86" value="Private Subnet" style="sketch=0;outlineConnect=0;gradientColor=#d5739d;html=1;whiteSpace=wrap;fontSize=12;fontStyle=0;shape=mxgraph.aws4.group;grIcon=mxgraph.aws4.group_subnet;strokeColor=#996185;fillColor=#e6d0de;verticalAlign=top;align=left;spacingLeft=30;dashed=0;" vertex="1" parent="CfDckG5nh9p7WPvy-2GI-5">
          <mxGeometry x="430" y="600" width="240" height="250" as="geometry" />
        </mxCell>
        <mxCell id="CfDckG5nh9p7WPvy-2GI-87" value="&lt;b&gt;Security Group&lt;/b&gt;" style="fontStyle=0;verticalAlign=top;align=center;spacingTop=-2;fillColor=none;rounded=0;whiteSpace=wrap;html=1;strokeColor=#FF0000;strokeWidth=2;dashed=1;container=1;collapsible=0;expand=0;recursiveResize=0;" vertex="1" parent="CfDckG5nh9p7WPvy-2GI-5">
          <mxGeometry x="125" y="650" width="170" height="170" as="geometry" />
        </mxCell>
        <mxCell id="CfDckG5nh9p7WPvy-2GI-94" value="Amazon EC2" style="sketch=0;outlineConnect=0;fontColor=#232F3E;gradientColor=none;strokeColor=#ffffff;fillColor=#232F3E;dashed=0;verticalLabelPosition=middle;verticalAlign=bottom;align=center;html=1;whiteSpace=wrap;fontSize=10;fontStyle=1;spacing=3;shape=mxgraph.aws4.productIcon;prIcon=mxgraph.aws4.ec2;" vertex="1" parent="CfDckG5nh9p7WPvy-2GI-87">
          <mxGeometry x="45" y="35" width="80" height="100" as="geometry" />
        </mxCell>
        <mxCell id="CfDckG5nh9p7WPvy-2GI-88" value="&lt;b&gt;Security Group&lt;/b&gt;" style="fontStyle=0;verticalAlign=top;align=center;spacingTop=-2;fillColor=none;rounded=0;whiteSpace=wrap;html=1;strokeColor=#FF0000;strokeWidth=2;dashed=1;container=1;collapsible=0;expand=0;recursiveResize=0;" vertex="1" parent="CfDckG5nh9p7WPvy-2GI-5">
          <mxGeometry x="460" y="650" width="170" height="170" as="geometry" />
        </mxCell>
        <mxCell id="CfDckG5nh9p7WPvy-2GI-95" value="Amazon EC2" style="sketch=0;outlineConnect=0;fontColor=#232F3E;gradientColor=none;strokeColor=#ffffff;fillColor=#232F3E;dashed=0;verticalLabelPosition=middle;verticalAlign=bottom;align=center;html=1;whiteSpace=wrap;fontSize=10;fontStyle=1;spacing=3;shape=mxgraph.aws4.productIcon;prIcon=mxgraph.aws4.ec2;" vertex="1" parent="CfDckG5nh9p7WPvy-2GI-88">
          <mxGeometry x="50" y="35" width="80" height="100" as="geometry" />
        </mxCell>
        <mxCell id="CfDckG5nh9p7WPvy-2GI-89" value="&lt;b&gt;Security Group&lt;/b&gt;" style="fontStyle=0;verticalAlign=top;align=center;spacingTop=-2;fillColor=none;rounded=0;whiteSpace=wrap;html=1;strokeColor=#FF0000;strokeWidth=2;dashed=1;container=1;collapsible=0;expand=0;recursiveResize=0;" vertex="1" parent="CfDckG5nh9p7WPvy-2GI-5">
          <mxGeometry x="125" y="300" width="170" height="170" as="geometry" />
        </mxCell>
        <mxCell id="CfDckG5nh9p7WPvy-2GI-91" value="Amazon EC2" style="sketch=0;outlineConnect=0;fontColor=#232F3E;gradientColor=none;strokeColor=#ffffff;fillColor=#232F3E;dashed=0;verticalLabelPosition=middle;verticalAlign=bottom;align=center;html=1;whiteSpace=wrap;fontSize=10;fontStyle=1;spacing=3;shape=mxgraph.aws4.productIcon;prIcon=mxgraph.aws4.ec2;" vertex="1" parent="CfDckG5nh9p7WPvy-2GI-89">
          <mxGeometry x="45" y="40" width="80" height="100" as="geometry" />
        </mxCell>
        <mxCell id="CfDckG5nh9p7WPvy-2GI-98" value="" style="endArrow=classic;startArrow=classic;html=1;rounded=0;exitX=0.5;exitY=0.05;exitDx=0;exitDy=0;exitPerimeter=0;fillColor=#dae8fc;gradientColor=#7ea6e0;strokeColor=#6c8ebf;" edge="1" parent="CfDckG5nh9p7WPvy-2GI-89" source="CfDckG5nh9p7WPvy-2GI-94">
          <mxGeometry width="50" height="50" relative="1" as="geometry">
            <mxPoint x="35" y="190" as="sourcePoint" />
            <mxPoint x="85" y="140" as="targetPoint" />
          </mxGeometry>
        </mxCell>
        <mxCell id="CfDckG5nh9p7WPvy-2GI-90" value="&lt;b&gt;Security Group&lt;/b&gt;" style="fontStyle=0;verticalAlign=top;align=center;spacingTop=-2;fillColor=none;rounded=0;whiteSpace=wrap;html=1;strokeColor=#FF0000;strokeWidth=2;dashed=1;container=1;collapsible=0;expand=0;recursiveResize=0;" vertex="1" parent="CfDckG5nh9p7WPvy-2GI-5">
          <mxGeometry x="460" y="300" width="170" height="170" as="geometry" />
        </mxCell>
        <mxCell id="CfDckG5nh9p7WPvy-2GI-93" value="Amazon EC2" style="sketch=0;outlineConnect=0;fontColor=#232F3E;gradientColor=none;strokeColor=#ffffff;fillColor=#232F3E;dashed=0;verticalLabelPosition=middle;verticalAlign=bottom;align=center;html=1;whiteSpace=wrap;fontSize=10;fontStyle=1;spacing=3;shape=mxgraph.aws4.productIcon;prIcon=mxgraph.aws4.ec2;" vertex="1" parent="CfDckG5nh9p7WPvy-2GI-90">
          <mxGeometry x="45" y="35" width="80" height="100" as="geometry" />
        </mxCell>
        <mxCell id="CfDckG5nh9p7WPvy-2GI-10" value="Internet&#xa;gateway" style="sketch=0;outlineConnect=0;fontColor=#232F3E;gradientColor=none;strokeColor=#232F3E;fillColor=#ffffff;dashed=0;verticalLabelPosition=bottom;verticalAlign=top;align=center;html=1;fontSize=12;fontStyle=0;aspect=fixed;shape=mxgraph.aws4.resourceIcon;resIcon=mxgraph.aws4.internet_gateway;" vertex="1" parent="CfDckG5nh9p7WPvy-2GI-5">
          <mxGeometry x="355" y="-30" width="60" height="60" as="geometry" />
        </mxCell>
        <mxCell id="CfDckG5nh9p7WPvy-2GI-26" value="" style="endArrow=classic;startArrow=classic;html=1;rounded=0;" edge="1" parent="CfDckG5nh9p7WPvy-2GI-5" source="CfDckG5nh9p7WPvy-2GI-25" target="CfDckG5nh9p7WPvy-2GI-10">
          <mxGeometry width="50" height="50" relative="1" as="geometry">
            <mxPoint x="365" y="80" as="sourcePoint" />
            <mxPoint x="415" y="30" as="targetPoint" />
          </mxGeometry>
        </mxCell>
        <mxCell id="CfDckG5nh9p7WPvy-2GI-96" value="" style="endArrow=classic;startArrow=classic;html=1;rounded=0;" edge="1" parent="CfDckG5nh9p7WPvy-2GI-5" source="CfDckG5nh9p7WPvy-2GI-91" target="CfDckG5nh9p7WPvy-2GI-25">
          <mxGeometry width="50" height="50" relative="1" as="geometry">
            <mxPoint x="340" y="230" as="sourcePoint" />
            <mxPoint x="390" y="180" as="targetPoint" />
          </mxGeometry>
        </mxCell>
        <mxCell id="CfDckG5nh9p7WPvy-2GI-97" value="" style="endArrow=classic;startArrow=classic;html=1;rounded=0;" edge="1" parent="CfDckG5nh9p7WPvy-2GI-5" source="CfDckG5nh9p7WPvy-2GI-93" target="CfDckG5nh9p7WPvy-2GI-25">
          <mxGeometry width="50" height="50" relative="1" as="geometry">
            <mxPoint x="297" y="327" as="sourcePoint" />
            <mxPoint x="400" y="190" as="targetPoint" />
          </mxGeometry>
        </mxCell>
        <mxCell id="CfDckG5nh9p7WPvy-2GI-100" value="" style="endArrow=classic;startArrow=classic;html=1;rounded=0;" edge="1" parent="CfDckG5nh9p7WPvy-2GI-5" source="CfDckG5nh9p7WPvy-2GI-70" target="CfDckG5nh9p7WPvy-2GI-68">
          <mxGeometry width="50" height="50" relative="1" as="geometry">
            <mxPoint x="680" y="340" as="sourcePoint" />
            <mxPoint x="690" y="310" as="targetPoint" />
          </mxGeometry>
        </mxCell>
        <mxCell id="CfDckG5nh9p7WPvy-2GI-107" value="" style="endArrow=classic;startArrow=classic;html=1;rounded=0;" edge="1" parent="CfDckG5nh9p7WPvy-2GI-5" target="CfDckG5nh9p7WPvy-2GI-69">
          <mxGeometry width="50" height="50" relative="1" as="geometry">
            <mxPoint x="60" y="360" as="sourcePoint" />
            <mxPoint x="110" y="310" as="targetPoint" />
          </mxGeometry>
        </mxCell>
        <mxCell id="CfDckG5nh9p7WPvy-2GI-108" value="" style="endArrow=classic;startArrow=classic;html=1;rounded=0;" edge="1" parent="CfDckG5nh9p7WPvy-2GI-5" target="CfDckG5nh9p7WPvy-2GI-71">
          <mxGeometry width="50" height="50" relative="1" as="geometry">
            <mxPoint x="60" y="720" as="sourcePoint" />
            <mxPoint x="110" y="670" as="targetPoint" />
          </mxGeometry>
        </mxCell>
        <mxCell id="CfDckG5nh9p7WPvy-2GI-110" value="" style="endArrow=classic;startArrow=classic;html=1;rounded=0;" edge="1" parent="CfDckG5nh9p7WPvy-2GI-5">
          <mxGeometry width="50" height="50" relative="1" as="geometry">
            <mxPoint x="670" y="730" as="sourcePoint" />
            <mxPoint x="690" y="720" as="targetPoint" />
          </mxGeometry>
        </mxCell>
        <mxCell id="CfDckG5nh9p7WPvy-2GI-12" value="" style="outlineConnect=0;dashed=0;verticalLabelPosition=bottom;verticalAlign=top;align=center;html=1;shape=mxgraph.aws3.internet_3;fillColor=#D2D3D3;gradientColor=none;" vertex="1" parent="1">
          <mxGeometry x="365.25" y="77" width="79.5" height="54" as="geometry" />
        </mxCell>
        <mxCell id="CfDckG5nh9p7WPvy-2GI-14" value="" style="endArrow=classic;startArrow=classic;html=1;rounded=0;" edge="1" parent="1" source="CfDckG5nh9p7WPvy-2GI-10" target="CfDckG5nh9p7WPvy-2GI-12">
          <mxGeometry width="50" height="50" relative="1" as="geometry">
            <mxPoint x="425" y="180" as="sourcePoint" />
            <mxPoint x="450" y="140" as="targetPoint" />
          </mxGeometry>
        </mxCell>
        <mxCell id="CfDckG5nh9p7WPvy-2GI-19" value="General User" style="shape=umlActor;html=1;verticalLabelPosition=bottom;verticalAlign=top;align=center;" vertex="1" parent="1">
          <mxGeometry x="570" y="74" width="30" height="60" as="geometry" />
        </mxCell>
        <mxCell id="CfDckG5nh9p7WPvy-2GI-20" value="Bastion Host" style="shape=umlActor;html=1;verticalLabelPosition=bottom;verticalAlign=top;align=center;" vertex="1" parent="1">
          <mxGeometry x="230" y="77" width="30" height="60" as="geometry" />
        </mxCell>
        <mxCell id="CfDckG5nh9p7WPvy-2GI-22" value="" style="endArrow=classic;startArrow=classic;html=1;rounded=0;exitX=0.733;exitY=0.354;exitDx=0;exitDy=0;exitPerimeter=0;entryX=0.245;entryY=0.361;entryDx=0;entryDy=0;entryPerimeter=0;fillColor=#dae8fc;gradientColor=#7ea6e0;strokeColor=#6c8ebf;" edge="1" parent="1" source="CfDckG5nh9p7WPvy-2GI-20" target="CfDckG5nh9p7WPvy-2GI-12">
          <mxGeometry width="50" height="50" relative="1" as="geometry">
            <mxPoint x="335" y="150" as="sourcePoint" />
            <mxPoint x="385" y="100" as="targetPoint" />
          </mxGeometry>
        </mxCell>
        <mxCell id="CfDckG5nh9p7WPvy-2GI-24" value="" style="endArrow=classic;startArrow=classic;html=1;rounded=0;exitX=0.733;exitY=0.354;exitDx=0;exitDy=0;exitPerimeter=0;" edge="1" parent="1">
          <mxGeometry width="50" height="50" relative="1" as="geometry">
            <mxPoint x="440" y="103" as="sourcePoint" />
            <mxPoint x="573" y="105" as="targetPoint" />
          </mxGeometry>
        </mxCell>
      </root>
    </mxGraphModel>
  </diagram>
</mxfile>
